# xmcd
#
# Track frame offsets:
#  150
#  16910
#  33472
#  52275
#  62997
#  75792
#  89902
#  101985
#  115890
#  133597
#
# Disc length: 1972 seconds
#
# Revision: 2
# Processed by: cddbd v1.4PL0 Copyright (c) Steve Scherf et al.
# Submitted via: AltoMP3_Maker 3.0
#
DISCID=8a07b20a
DTITLE=Don Williams - Greatest Hits
DYEAR=1900
DGENRE=
TTITLE0=Love Is On A Roll
TTITLE1=That's The Thing About Love
TTITLE2=Maggie's Dream
TTITLE3=Louisiana Saturday Night
TTITLE4=Falling Again
TTITLE5=Stay Young
TTITLE6=Nobody But You
TTITLE7=Walkin' A Broken Heart
TTITLE8=It's Time For Love
TTITLE9=Cup O' Tea
EXTD=
EXTT0=
EXTT1=
EXTT2=
EXTT3=
EXTT4=
EXTT5=
EXTT6=
EXTT7=
EXTT8=
EXTT9=
PLAYORDER=
